<svg width="414" height="109" viewBox="0 0 414 109" fill="none" xmlns="http://www.w3.org/2000/svg">
<g clip-path="url(#clip0_4:2)">
<rect width="414" height="109" fill="white"/>
<g clip-path="url(#clip1_4:2)">
<mask id="mask0_4:2" style="mask-type:alpha" maskUnits="userSpaceOnUse" x="0" y="-305" width="414" height="414">
<path d="M0 -305H414V109H0V-305Z" fill="white"/>
</mask>
<g mask="url(#mask0_4:2)">
<path d="M0 -305H414V109H0V-305Z" fill="#44124A"/>
<path opacity="0.08" d="M124.828 44.767C93.4678 26.6613 70.3024 -0.18726 56.6329 -30.9223C68.0436 -30.8699 79.3171 -33.5267 89.4811 -38.6308C100.647 -16.4419 118.201 2.8482 141.322 16.1975C193.926 46.5681 258.748 36.604 299.977 -4.0989C314.635 -1.91815 329.447 -2.39759 343.719 -5.35132C295.633 65.5546 200.197 88.2814 124.828 44.767ZM84.9597 -152.842C85.5657 -152.492 86.1628 -152.133 86.7512 -151.765C72.2762 -119.377 71.9122 -83.6131 83.6147 -52.0884C73.695 -46.7202 62.335 -44.3332 51.0191 -45.3242C38.638 -82.0429 39.1748 -122.946 54.6278 -160.567C62.9793 -160.786 71.4594 -159.197 79.4707 -155.637C81.3281 -154.812 83.1603 -153.881 84.9597 -152.842ZM279.076 -246.595C265.241 -242.017 252.175 -235.027 240.57 -225.81C184.936 -240.335 124.313 -217.018 93.7134 -165.241L93.115 -165.593C83.0996 -171.375 72.2743 -174.484 61.4655 -175.141C62.4205 -176.956 63.4182 -178.76 64.4534 -180.553C107.725 -255.501 200.932 -283.644 277.785 -247.218L279.076 -246.595ZM360.431 -36.7187L360.323 -36.6714C347.324 -30.7097 333.144 -27.5601 318.789 -27.4926C319.748 -29.003 320.677 -30.5398 321.579 -32.1021C355.325 -90.5531 339.272 -164.091 286.582 -203.582C282.379 -206.732 277.942 -209.666 273.279 -212.358C271.718 -213.26 270.146 -214.126 268.564 -214.956C281.06 -222.094 294.955 -226.461 309.233 -227.784C366.75 -182.701 387.698 -104.519 360.431 -36.7187Z" stroke="#ED4D77" stroke-width="2"/>
<path opacity="0.08" d="M28.9603 211.328C-38.9867 172.099 -89.1784 113.927 -118.796 47.3343C-94.0723 47.4486 -69.6458 41.6921 -47.6232 30.6329C-23.4304 78.7094 14.6018 120.504 64.6986 149.428C178.673 215.231 319.121 193.642 408.45 105.452C440.209 110.177 472.301 109.139 503.222 102.739C399.038 256.368 192.26 305.609 28.9603 211.328ZM-57.4206 -216.825C-56.1078 -216.067 -54.8141 -215.289 -53.5394 -214.491C-84.9014 -144.317 -85.6901 -66.8288 -60.3352 1.47418C-81.8275 13.1061 -106.44 18.278 -130.958 16.131C-157.784 -63.4258 -156.621 -152.049 -123.139 -233.562C-105.044 -234.036 -86.671 -230.592 -69.3134 -222.881C-65.2891 -221.093 -61.3194 -219.076 -57.4206 -216.825ZM363.166 -419.956C333.189 -410.037 304.88 -394.893 279.735 -374.922C159.197 -406.392 27.8463 -355.874 -38.4533 -243.69L-39.7509 -244.451C-61.4513 -256.98 -84.9065 -263.716 -108.326 -265.138L-108.336 -265.14C-106.255 -269.072 -104.094 -272.981 -101.851 -276.866C-8.0968 -439.253 193.852 -500.228 360.367 -421.307L363.166 -419.956ZM539.434 34.7756L539.201 34.8788C511.036 47.7958 480.311 54.6198 449.21 54.7661C451.287 51.4935 453.3 48.1637 455.254 44.7788C528.372 -81.865 493.588 -241.196 379.428 -326.761C370.32 -333.587 360.708 -339.944 350.605 -345.777C347.222 -347.73 343.816 -349.606 340.389 -351.405C367.464 -366.871 397.57 -376.331 428.505 -379.199C553.125 -281.519 598.513 -112.125 539.434 34.7756Z" stroke="#ED4D77" stroke-width="2"/>
<path opacity="0.04" d="M-38.255 -31.8581C-52.7051 -85.7864 -48.6898 -140.312 -30.0848 -188.723C-17.7013 -176.226 -2.51411 -166.832 14.1317 -161.315C2.11405 -124.95 0.220682 -84.7833 10.8746 -45.0224C35.0672 45.2657 116.337 105.018 205.461 105.814C219.007 124.208 235.625 139.875 254.359 152.264C124.856 176.748 -3.58586 97.529 -38.255 -31.8581ZM133.717 -290.76C133.996 -289.718 134.256 -288.676 134.496 -287.633C83.4045 -268.103 44.0175 -229.51 22.4072 -182.383C5.74009 -187.345 -9.24721 -197.127 -20.5036 -210.545C6.02936 -264.074 51.2076 -308.082 109.07 -332.25C118.414 -323.384 125.926 -312.406 130.78 -299.792C131.905 -296.867 132.888 -293.855 133.717 -290.76ZM447.82 -180.592C427.776 -190.74 405.933 -197.423 383.247 -200.09C338.554 -276.947 246.81 -317.88 156.779 -294.734L156.509 -295.77C151.894 -312.994 143.481 -328.185 132.412 -340.686C135.434 -341.622 138.489 -342.502 141.572 -343.328C270.456 -377.862 402.754 -306.927 446.829 -183.429L447.82 -180.592ZM306.794 136.438L304.852 135.696C284.907 127.943 266.686 116.112 251.464 100.939C254.327 100.307 257.19 99.6057 260.05 98.8392C360.566 71.9062 423.235 -25.768 408.847 -126.265C407.699 -134.283 406.061 -142.318 403.912 -150.336C403.248 -152.814 402.541 -155.268 401.793 -157.699C423.175 -151.801 443.053 -141.363 460.022 -127.196C473.227 -15.3777 410.591 92.5222 306.794 136.438Z" fill="#B757C2"/>
</g>
</g>
</g>
<defs>
<clipPath id="clip0_4:2">
<rect width="414" height="109" fill="white"/>
</clipPath>
<clipPath id="clip1_4:2">
<rect width="414" height="414" fill="white" transform="translate(0 -138)"/>
</clipPath>
</defs>
</svg>
