<svg width="414" height="276" viewBox="0 0 414 276" fill="none" xmlns="http://www.w3.org/2000/svg">
<g clip-path="url(#clip0_4:2)">
<rect width="414" height="276" fill="white"/>
<mask id="mask0_4:2" style="mask-type:alpha" maskUnits="userSpaceOnUse" x="0" y="-138" width="414" height="414">
<path d="M0 -138H414V276H0V-138Z" fill="white"/>
</mask>
<g mask="url(#mask0_4:2)">
<path d="M0 -138H414V276H0V-138Z" fill="#44124A"/>
<path opacity="0.04" d="M208.128 166C187.024 166 167.509 159.199 151.654 147.67C157.428 144.372 162.344 139.746 165.987 134.208C178.089 142.153 192.569 146.774 208.128 146.774C243.536 146.774 273.355 122.844 282.295 90.2744C290.326 87.1072 297.659 82.5534 304.001 76.9086C300.399 126.713 258.852 166 208.128 166ZM130.425 77.8823C130.833 77.8823 131.239 77.8895 131.643 77.9039C133.775 98.4701 144.013 116.626 159.105 129.126C155.662 134.726 150.624 139.241 144.624 142.038C127.676 127.113 116.028 106.313 112.865 82.8222C117.017 80.2779 121.759 78.6091 126.84 78.071C128.018 77.9463 129.214 77.8823 130.425 77.8823ZM201.09 -26.0008C195.446 -19.66 190.893 -12.3271 187.725 -4.29645C155.401 4.57612 131.586 34.0157 131.23 69.0741L130.825 69.0705C124.085 69.0705 117.715 70.6561 112.068 73.4747C112.022 72.2795 112 71.0781 112 69.8716C112 19.4358 150.842 -21.9279 200.244 -25.9382L201.09 -26.0008ZM303.294 56.2208L303.274 56.2479C298.446 63.0507 292.2 68.7764 284.966 72.994C285.01 71.958 285.031 70.9172 285.031 69.8716C285.031 30.5373 255.5 -1.89974 217.399 -6.47803C214.36 -6.84326 211.266 -7.03119 208.128 -7.03119C207.083 -7.03119 206.042 -7.01035 205.007 -6.96902C209.23 -14.2108 214.965 -20.4635 221.779 -25.2937C263.945 -19.3001 297.3 14.0552 303.294 56.2208Z" fill="#B757C2"/>
<path opacity="0.08" d="M124.828 211.767C93.4678 193.661 70.3024 166.813 56.6329 136.078C68.0436 136.13 79.3171 133.473 89.4811 128.369C100.647 150.558 118.201 169.848 141.322 183.197C193.926 213.568 258.748 203.604 299.977 162.901C314.635 165.082 329.447 164.602 343.719 161.649C295.633 232.555 200.197 255.281 124.828 211.767ZM84.9597 14.1578C85.5657 14.5076 86.1628 14.8668 86.7512 15.235C72.2762 47.6227 71.9122 83.3869 83.6147 114.912C73.695 120.28 62.335 122.667 51.0191 121.676C38.638 84.9571 39.1748 44.0543 54.6278 6.43312C62.9793 6.21416 71.4594 7.80347 79.4707 11.3627C81.3281 12.1878 83.1603 13.1189 84.9597 14.1578ZM279.076 -79.5947C265.241 -75.0171 252.175 -68.0273 240.57 -58.8104C184.936 -73.3348 124.313 -50.0185 93.7134 1.7591L93.115 1.40711C83.0996 -4.37526 72.2743 -7.48403 61.4655 -8.14065C62.4205 -9.95606 63.4182 -11.7604 64.4534 -13.5535C107.725 -88.5013 200.932 -116.644 277.785 -80.2184L279.076 -79.5947ZM360.431 130.281L360.323 130.329C347.324 136.29 333.144 139.44 318.789 139.507C319.748 137.997 320.677 136.46 321.579 134.898C355.325 76.4469 339.272 2.90945 286.582 -36.582C282.379 -39.7325 277.942 -42.6662 273.279 -45.3584C271.718 -46.2598 270.146 -47.1257 268.564 -47.9564C281.06 -55.0944 294.955 -59.4606 309.233 -60.7844C366.75 -15.7007 387.698 62.4809 360.431 130.281Z" stroke="#ED4D77" stroke-width="2"/>
<path opacity="0.08" d="M28.9603 378.328C-38.9867 339.099 -89.1784 280.927 -118.796 214.334C-94.0723 214.449 -69.6458 208.692 -47.6232 197.633C-23.4304 245.709 14.6018 287.504 64.6986 316.428C178.673 382.231 319.121 360.642 408.45 272.452C440.209 277.177 472.301 276.139 503.222 269.739C399.038 423.368 192.26 472.609 28.9603 378.328ZM-57.4206 -49.8247C-56.1078 -49.0668 -54.8141 -48.2887 -53.5394 -47.491C-84.9014 22.6831 -85.6901 100.171 -60.3352 168.474C-81.8275 180.106 -106.44 185.278 -130.958 183.131C-157.784 103.574 -156.621 14.9506 -123.139 -66.5624C-105.044 -67.0358 -86.671 -63.5923 -69.3134 -55.8809C-65.2891 -54.093 -61.3194 -52.0757 -57.4206 -49.8247ZM363.166 -252.956C333.189 -243.037 304.88 -227.893 279.735 -207.922C159.197 -239.392 27.8463 -188.874 -38.4533 -76.6904L-39.7509 -77.4513C-61.4513 -89.98 -84.9065 -96.7157 -108.326 -98.1382L-108.336 -98.1403C-106.255 -102.072 -104.094 -105.981 -101.851 -109.866C-8.0968 -272.253 193.852 -333.228 360.367 -254.307L363.166 -252.956ZM539.434 201.776L539.201 201.879C511.036 214.796 480.311 221.62 449.21 221.766C451.287 218.493 453.3 215.164 455.254 211.779C528.372 85.135 493.588 -74.1962 379.428 -159.761C370.32 -166.587 360.708 -172.944 350.605 -178.777C347.222 -180.73 343.816 -182.606 340.389 -184.405C367.464 -199.871 397.57 -209.331 428.505 -212.199C553.125 -114.519 598.513 54.8745 539.434 201.776Z" stroke="#ED4D77" stroke-width="2"/>
<path opacity="0.04" d="M-38.255 135.142C-52.7051 81.2135 -48.6898 26.6877 -30.0848 -21.7228C-17.7013 -9.2258 -2.51411 0.168341 14.1317 5.68478C2.11405 42.0497 0.220682 82.2167 10.8746 121.978C35.0672 212.266 116.337 272.018 205.461 272.814C219.007 291.208 235.625 306.875 254.359 319.264C124.856 343.748 -3.58586 264.529 -38.255 135.142ZM133.717 -123.76C133.996 -122.718 134.256 -121.676 134.496 -120.633C83.4045 -101.103 44.0175 -62.5097 22.4072 -15.3832C5.74009 -20.345 -9.24721 -30.1275 -20.5036 -43.5446C6.02936 -97.074 51.2076 -141.082 109.07 -165.25C118.414 -156.384 125.926 -145.406 130.78 -132.792C131.905 -129.867 132.888 -126.855 133.717 -123.76ZM447.82 -13.5918C427.776 -23.7397 405.933 -30.4231 383.247 -33.0905C338.554 -109.947 246.81 -150.88 156.779 -127.734L156.509 -128.77C151.894 -145.994 143.481 -161.186 132.412 -173.686C135.434 -174.622 138.489 -175.502 141.572 -176.328C270.456 -210.862 402.754 -139.928 446.829 -16.4295L447.82 -13.5918ZM306.794 303.438L304.852 302.696C284.907 294.943 266.686 283.112 251.464 267.939C254.327 267.307 257.19 266.606 260.05 265.839C360.566 238.906 423.235 141.232 408.847 40.7346C407.699 32.7174 406.061 24.6822 403.912 16.6635C403.248 14.1861 402.541 11.7316 401.793 9.30071C423.175 15.1987 443.053 25.6374 460.022 39.8041C473.227 151.622 410.591 259.522 306.794 303.438Z" fill="#B757C2"/>
</g>
</g>
<defs>
<clipPath id="clip0_4:2">
<rect width="414" height="276" fill="white"/>
</clipPath>
</defs>
</svg>
